<svg preserveAspectRatio="none" width="100%" height="100%" overflow="visible" style="display: block;" viewBox="0 0 21 20" fill="none" xmlns="http://www.w3.org/2000/svg">
<g id="Vector">
<path d="M18.4066 6.68108C18.2614 6.24079 17.8976 5.87072 17.3757 5.75592L14.2376 5.06239C14.0486 5.02052 13.8718 4.94084 13.7184 4.83076C13.565 4.72069 13.4334 4.57955 13.3348 4.41546L11.6962 1.68725C11.4236 1.23345 10.9544 1.00655 10.4852 1.00655C10.0159 1.00655 9.54669 1.23345 9.27406 1.68725L7.63552 4.41546C7.53687 4.58023 7.40535 4.72069 7.25191 4.83076C7.09847 4.94084 6.92174 5.02052 6.73267 5.06239L3.59465 5.75592C3.07267 5.8714 2.70893 6.24146 2.56371 6.68108C2.41849 7.12138 2.49247 7.63123 2.84593 8.02695L4.97152 10.4067C5.09961 10.5505 5.19483 10.7167 5.25374 10.8949C5.31265 11.0732 5.33457 11.263 5.31676 11.4534L5.01604 14.6098C4.96604 15.1351 5.21058 15.5903 5.59008 15.8624C5.96957 16.1346 6.4847 16.2231 6.97585 16.0137L9.92824 14.7563C10.1063 14.6807 10.2968 14.6429 10.4865 14.6429C10.6763 14.6429 10.8667 14.6807 11.0448 14.7563L13.9972 16.0137C14.4883 16.2231 15.0035 16.1346 15.383 15.8624C15.7625 15.5903 16.007 15.1351 15.957 14.6098L15.6563 11.4534C15.6385 11.263 15.6604 11.0732 15.7193 10.8949C15.7782 10.7167 15.8734 10.5505 16.0015 10.4067L18.1271 8.02695C18.4806 7.63123 18.5546 7.1207 18.4093 6.68108H18.4066Z" fill="#FFCD00"/>
<path d="M16.6742 10.9996C16.7667 10.6883 17.0448 10.4668 17.3722 10.4418L19.3464 10.2939C20.4171 10.2136 21.2384 11.2137 20.937 12.2293C20.6356 13.245 19.3964 13.6502 18.5388 13.014L16.9571 11.8404C16.6948 11.6452 16.5817 11.3103 16.6742 10.9996Z" fill="#FFE63B"/>
<path d="M10.6078 15.6227C10.9366 15.6133 11.2366 15.805 11.3613 16.1049L12.1141 17.9099C12.5224 18.8891 11.8113 19.9683 10.7379 19.9993C9.66451 20.0304 8.89114 18.9938 9.23981 17.993L9.88371 16.1474C9.99058 15.8408 10.279 15.6328 10.6078 15.6227Z" fill="#FFE63B"/>
<path d="M4.27212 11.3582C4.38309 11.6634 4.29062 12.0045 4.04059 12.2138L2.53288 13.4786C1.71498 14.1647 0.453882 13.8332 0.0915122 12.8364C-0.270858 11.8404 0.488817 10.7936 1.56223 10.8105L3.5419 10.8423C3.87071 10.8477 4.16115 11.053 4.27212 11.3582Z" fill="#FFE63B"/>
<path d="M6.42579 4.10549C6.16549 4.30336 5.80791 4.32159 5.52843 4.15141L3.84399 3.12564C2.93087 2.56919 2.86306 1.2841 3.71315 0.637836C4.56325 -0.00842472 5.80723 0.382573 6.12028 1.39485L6.69842 3.26137C6.79432 3.57133 6.68609 3.90763 6.42579 4.10549Z" fill="#FFE63B"/>
<path d="M14.0945 3.88197C13.8232 3.69896 13.6944 3.37009 13.7725 3.05473L14.2397 1.15782C14.4931 0.129336 15.7118 -0.331893 16.5982 0.264396C17.4853 0.86136 17.4935 2.1478 16.6139 2.75557L14.9925 3.87589C14.7233 4.0616 14.3664 4.06498 14.0945 3.88197Z" fill="#FFE63B"/>
</g>
</svg>
